<svg width="594" height="378" viewBox="0 0 594 378" fill="none" xmlns="http://www.w3.org/2000/svg">
<rect width="594" height="378" fill="#F5F5F5"/>
<rect x="9.89416" y="9.96353" width="54.9496" height="156.874" rx="10" transform="matrix(0.999994 -0.00359126 -0.0105776 0.999944 130.533 101.206)" fill="#F5F5F5" stroke="#444F78" stroke-width="20"/>
<rect x="7.42062" y="7.47265" width="26.5384" height="73.437" rx="7.5" transform="matrix(0.999994 -0.00359126 -0.0105776 0.999944 96.6387 144.667)" fill="#F5F5F5" stroke="#444F78" stroke-width="15"/>
<rect x="-9.89416" y="-9.96353" width="54.9496" height="156.874" rx="10" transform="matrix(-0.999994 0.00359126 0.0105776 -0.999944 444.791 256.938)" fill="#F5F5F5" stroke="#444F78" stroke-width="20"/>
<rect x="-7.42062" y="-7.47265" width="25.6353" height="73.437" rx="7.5" transform="matrix(-0.999994 0.00359126 0.0105776 -0.999944 482.697 216.71)" fill="#F5F5F5" stroke="#444F78" stroke-width="15"/>
<path d="M535.858 186.843C535.779 194.265 529.699 200.303 522.277 200.329L497.79 200.417L498.074 173.541L522.561 173.453C529.983 173.426 535.936 179.421 535.858 186.843V186.843Z" fill="#444F78"/>
<path d="M58.1378 191.594C58.2138 184.411 64.0981 178.568 71.2807 178.542L96.2015 178.453L95.9263 204.462L71.0056 204.552C63.823 204.577 58.0618 198.776 58.1378 191.594V191.594Z" fill="#444F78"/>
<rect width="191.438" height="38.1493" transform="matrix(0.999994 -0.00359126 -0.0105776 0.999944 199.224 170.279)" fill="#444F78"/>
</svg>
