<svg width="594" height="378" viewBox="0 0 594 378" fill="none" xmlns="http://www.w3.org/2000/svg">
<rect width="594" height="378" fill="#414442"/>
<path d="M331.578 227.141C331.578 228.078 331.344 228.828 330.875 229.391C330.453 229.953 329.703 230.234 328.625 230.234C328.062 230.234 327.477 230.164 326.867 230.023C326.258 229.93 325.672 229.766 325.109 229.531C323.938 229.203 323 228.898 322.297 228.617C321.641 228.336 321.125 227.961 320.75 227.492C320.422 227.07 320.211 226.508 320.117 225.805C320.023 225.102 319.953 224.141 319.906 222.922C319.531 213.312 319.109 203.797 318.641 194.375C318.219 184.906 317.516 175.391 316.531 165.828C315.875 169.062 315.242 172.297 314.633 175.531C314.023 178.766 313.391 182.047 312.734 185.375C312.078 188.844 311.445 192.383 310.836 195.992C310.273 199.602 309.359 203.094 308.094 206.469C307.578 207.828 306.945 208.906 306.195 209.703C305.445 210.453 304.297 210.828 302.75 210.828C301.625 210.828 300.711 210.641 300.008 210.266C299.305 209.844 298.625 209.234 297.969 208.438C297.359 207.781 296.703 206.516 296 204.641C295.297 202.766 294.547 200.586 293.75 198.102C293 195.57 292.25 192.875 291.5 190.016C290.75 187.156 290.047 184.414 289.391 181.789C288.734 179.117 288.148 176.68 287.633 174.477C287.117 172.273 286.719 170.609 286.438 169.484V179.047C286.438 185.281 286.555 191.492 286.789 197.68C287.023 203.867 287.422 210.031 287.984 216.172C288.125 217.531 288.312 218.891 288.547 220.25C288.828 221.609 288.969 222.969 288.969 224.328C288.969 225.547 288.547 226.344 287.703 226.719C286.906 227.094 286.016 227.281 285.031 227.281C282.359 227.281 280.297 226.719 278.844 225.594C277.438 224.422 276.734 222.453 276.734 219.688C276.734 214.016 276.594 208.391 276.312 202.812C276.031 197.234 275.891 191.609 275.891 185.938C275.891 185.141 275.891 183.758 275.891 181.789C275.938 179.82 275.984 177.5 276.031 174.828C276.078 172.109 276.125 169.18 276.172 166.039C276.266 162.852 276.359 159.641 276.453 156.406C276.547 153.172 276.641 150.031 276.734 146.984C276.828 143.891 276.922 141.125 277.016 138.688C277.109 136.25 277.203 134.234 277.297 132.641C277.438 131 277.578 130.016 277.719 129.688C277.953 129.031 278.211 128.609 278.492 128.422C278.82 128.234 279.312 128.141 279.969 128.141C281.75 128.141 283.227 128.539 284.398 129.336C285.617 130.086 286.438 131.375 286.859 133.203C287.516 134.188 288.266 135.992 289.109 138.617C289.953 141.195 290.844 144.219 291.781 147.688C292.719 151.156 293.656 154.906 294.594 158.938C295.578 162.922 296.492 166.766 297.336 170.469C298.227 174.172 299.023 177.57 299.727 180.664C300.477 183.758 301.062 186.125 301.484 187.766C302.844 179.703 304.227 171.688 305.633 163.719C307.039 155.75 308.375 147.734 309.641 139.672C309.875 138.312 310.109 136.977 310.344 135.664C310.625 134.352 310.766 133.016 310.766 131.656C310.766 130.812 310.648 130.039 310.414 129.336C310.18 128.586 310.062 127.812 310.062 127.016C310.062 126.031 310.367 125.445 310.977 125.258C311.633 125.023 312.359 124.906 313.156 124.906C313.906 124.906 314.797 125.023 315.828 125.258C316.859 125.492 317.844 125.844 318.781 126.312C319.766 126.781 320.586 127.367 321.242 128.07C321.945 128.773 322.297 129.594 322.297 130.531C322.297 132.172 322.156 133.906 321.875 135.734C323.562 143.656 324.969 151.602 326.094 159.57C327.219 167.492 328.062 175.484 328.625 183.547C329.188 190.484 329.633 197.375 329.961 204.219C330.336 211.062 330.781 217.906 331.297 224.75C331.391 225.172 331.461 225.57 331.508 225.945C331.555 226.32 331.578 226.719 331.578 227.141Z" fill="white"/>
<rect width="594" height="378" fill="#414442"/>
<path d="M331.578 227.141C331.578 228.078 331.344 228.828 330.875 229.391C330.453 229.953 329.703 230.234 328.625 230.234C328.062 230.234 327.477 230.164 326.867 230.023C326.258 229.93 325.672 229.766 325.109 229.531C323.938 229.203 323 228.898 322.297 228.617C321.641 228.336 321.125 227.961 320.75 227.492C320.422 227.07 320.211 226.508 320.117 225.805C320.023 225.102 319.953 224.141 319.906 222.922C319.531 213.312 319.109 203.797 318.641 194.375C318.219 184.906 317.516 175.391 316.531 165.828C315.875 169.062 315.242 172.297 314.633 175.531C314.023 178.766 313.391 182.047 312.734 185.375C312.078 188.844 311.445 192.383 310.836 195.992C310.273 199.602 309.359 203.094 308.094 206.469C307.578 207.828 306.945 208.906 306.195 209.703C305.445 210.453 304.297 210.828 302.75 210.828C301.625 210.828 300.711 210.641 300.008 210.266C299.305 209.844 298.625 209.234 297.969 208.438C297.359 207.781 296.703 206.516 296 204.641C295.297 202.766 294.547 200.586 293.75 198.102C293 195.57 292.25 192.875 291.5 190.016C290.75 187.156 290.047 184.414 289.391 181.789C288.734 179.117 288.148 176.68 287.633 174.477C287.117 172.273 286.719 170.609 286.438 169.484V179.047C286.438 185.281 286.555 191.492 286.789 197.68C287.023 203.867 287.422 210.031 287.984 216.172C288.125 217.531 288.312 218.891 288.547 220.25C288.828 221.609 288.969 222.969 288.969 224.328C288.969 225.547 288.547 226.344 287.703 226.719C286.906 227.094 286.016 227.281 285.031 227.281C282.359 227.281 280.297 226.719 278.844 225.594C277.438 224.422 276.734 222.453 276.734 219.688C276.734 214.016 276.594 208.391 276.312 202.812C276.031 197.234 275.891 191.609 275.891 185.938C275.891 185.141 275.891 183.758 275.891 181.789C275.938 179.82 275.984 177.5 276.031 174.828C276.078 172.109 276.125 169.18 276.172 166.039C276.266 162.852 276.359 159.641 276.453 156.406C276.547 153.172 276.641 150.031 276.734 146.984C276.828 143.891 276.922 141.125 277.016 138.688C277.109 136.25 277.203 134.234 277.297 132.641C277.438 131 277.578 130.016 277.719 129.688C277.953 129.031 278.211 128.609 278.492 128.422C278.82 128.234 279.312 128.141 279.969 128.141C281.75 128.141 283.227 128.539 284.398 129.336C285.617 130.086 286.438 131.375 286.859 133.203C287.516 134.188 288.266 135.992 289.109 138.617C289.953 141.195 290.844 144.219 291.781 147.688C292.719 151.156 293.656 154.906 294.594 158.938C295.578 162.922 296.492 166.766 297.336 170.469C298.227 174.172 299.023 177.57 299.727 180.664C300.477 183.758 301.062 186.125 301.484 187.766C302.844 179.703 304.227 171.688 305.633 163.719C307.039 155.75 308.375 147.734 309.641 139.672C309.875 138.312 310.109 136.977 310.344 135.664C310.625 134.352 310.766 133.016 310.766 131.656C310.766 130.812 310.648 130.039 310.414 129.336C310.18 128.586 310.062 127.812 310.062 127.016C310.062 126.031 310.367 125.445 310.977 125.258C311.633 125.023 312.359 124.906 313.156 124.906C313.906 124.906 314.797 125.023 315.828 125.258C316.859 125.492 317.844 125.844 318.781 126.312C319.766 126.781 320.586 127.367 321.242 128.07C321.945 128.773 322.297 129.594 322.297 130.531C322.297 132.172 322.156 133.906 321.875 135.734C323.562 143.656 324.969 151.602 326.094 159.57C327.219 167.492 328.062 175.484 328.625 183.547C329.188 190.484 329.633 197.375 329.961 204.219C330.336 211.062 330.781 217.906 331.297 224.75C331.391 225.172 331.461 225.57 331.508 225.945C331.555 226.32 331.578 226.719 331.578 227.141Z" fill="white"/>
</svg>
