<svg width="594" height="378" viewBox="0 0 594 378" fill="none" xmlns="http://www.w3.org/2000/svg">
<rect width="594" height="378" fill="#60B3FF"/>
<path d="M337.07 190.117C337.07 200.008 335.5 208.539 332.359 215.711C329.219 222.836 324.812 228.414 319.141 232.445L337.422 246.789L328.211 255.297L306.625 238.141C303.25 238.984 299.688 239.406 295.938 239.406C287.875 239.406 280.727 237.438 274.492 233.5C268.258 229.516 263.406 223.867 259.938 216.555C256.516 209.195 254.758 200.688 254.664 191.031V183.648C254.664 173.805 256.375 165.109 259.797 157.562C263.219 150.016 268.047 144.25 274.281 140.266C280.562 136.234 287.734 134.219 295.797 134.219C304.047 134.219 311.289 136.211 317.523 140.195C323.805 144.18 328.633 149.922 332.008 157.422C335.383 164.875 337.07 173.594 337.07 183.578V190.117ZM323.57 183.508C323.57 171.461 321.156 162.18 316.328 155.664C311.547 149.102 304.703 145.82 295.797 145.82C287.312 145.82 280.609 149.078 275.688 155.594C270.812 162.062 268.305 171.062 268.164 182.594V190.117C268.164 201.836 270.602 211.07 275.477 217.82C280.398 224.57 287.219 227.945 295.938 227.945C304.656 227.945 311.406 224.781 316.188 218.453C320.969 212.078 323.43 202.961 323.57 191.102V183.508Z" fill="white"/>
</svg>
